<svg width="180" height="31" viewBox="0 0 180 31" fill="none" xmlns="http://www.w3.org/2000/svg">
<g clip-path="url(#clip0_13_754)">
<g clip-path="url(#clip1_13_754)">
<g clip-path="url(#clip2_13_754)">
<g clip-path="url(#clip3_13_754)">
<g clip-path="url(#clip4_13_754)">
<g clip-path="url(#clip5_13_754)">
<path d="M11.3697 21.1507C12.547 21.1507 13.519 21.2768 14.2859 21.5291C15.0495 21.7814 15.7844 22.2018 16.4908 22.7904L13.514 26.6501C11.7986 24.0434 9.74677 22.74 7.35862 22.74C5.10502 22.74 3.35595 21.9411 2.11142 20.3434C0.866893 18.7457 0.244629 16.4753 0.244629 13.5321C0.244629 10.589 0.89212 8.31017 2.1871 6.69565C3.48208 5.08113 5.34047 4.27386 7.76225 4.27386C10.2009 4.27386 12.0592 5.06767 13.3374 6.65529C14.6156 8.24626 15.2547 10.5386 15.2547 13.5321C15.2547 15.4998 14.8931 17.0807 14.1699 18.2748C13.4467 19.4689 12.5133 20.4275 11.3697 21.1507ZM5.54228 13.5321C5.54228 14.9617 5.6146 16.0885 5.75924 16.9126C5.90051 17.7366 6.13091 18.3286 6.45045 18.6885C6.76999 19.0518 7.20726 19.2334 7.76225 19.2334C8.33406 19.2334 8.77974 19.0518 9.09928 18.6885C9.41882 18.3286 9.64586 17.74 9.78041 16.9226C9.91495 16.1087 9.98222 14.9785 9.98222 13.5321C9.98222 12.1026 9.91159 10.9792 9.77032 10.1618C9.62568 9.34784 9.39359 8.76426 9.07405 8.41108C8.75451 8.0579 8.31725 7.88131 7.76225 7.88131C7.20726 7.88131 6.76999 8.0579 6.45045 8.41108C6.13091 8.76426 5.90051 9.34784 5.75924 10.1618C5.6146 10.9792 5.54228 12.1026 5.54228 13.5321ZM29.8358 4.7784V16.736C29.8358 17.8964 29.5869 18.9341 29.0891 19.849C28.5946 20.7672 27.8429 21.4904 26.8338 22.0185C25.8247 22.5499 24.5802 22.8157 23.1002 22.8157C20.8634 22.8157 19.1766 22.2741 18.0397 21.191C16.9062 20.1046 16.3394 18.6196 16.3394 16.736V4.7784H21.4352V16.5846C21.4352 17.4928 21.5614 18.152 21.8137 18.5624C22.0659 18.9761 22.4948 19.183 23.1002 19.183C23.6889 19.183 24.1093 18.9761 24.3616 18.5624C24.6138 18.152 24.74 17.4928 24.74 16.5846V4.7784H29.8358ZM31.299 4.7784H41.9952L41.4907 8.31017H36.3948V11.7158H40.8852V15.1467H36.3948V18.7541H41.8388V22.3363H31.299V4.7784ZM51.7782 22.3363L48.9276 16.0548H48.2464V22.3363H43.1506V4.7784H49.0032C51.425 4.7784 53.2212 5.2409 54.3917 6.16588C55.5589 7.09087 56.1425 8.48676 56.1425 10.3536C56.1425 12.5063 55.2343 14.0787 53.4179 15.071L57.2524 22.3363H51.7782ZM48.2464 8.25972V12.624H49.1041C49.76 12.624 50.2393 12.4423 50.5421 12.0791C50.8448 11.7192 50.9962 11.144 50.9962 10.3536C50.9962 9.63038 50.8246 9.10062 50.4815 8.76426C50.1351 8.4279 49.6255 8.25972 48.9528 8.25972H48.2464ZM64.6439 4.27386C67.0825 4.27386 68.9409 5.05926 70.2191 6.63006C71.4972 8.20422 72.1363 10.5049 72.1363 13.5321C72.1363 16.5089 71.4922 18.8046 70.2039 20.4191C68.9191 22.0336 67.0657 22.8409 64.6439 22.8409C62.2053 22.8409 60.3436 22.0454 59.0587 20.4544C57.7704 18.8668 57.1263 16.5594 57.1263 13.5321C57.1263 10.5554 57.7704 8.26813 59.0587 6.67042C60.3436 5.07272 62.2053 4.27386 64.6439 4.27386ZM64.6439 7.88131C64.0889 7.88131 63.6517 8.06127 63.3321 8.42117C63.0126 8.78444 62.7822 9.37307 62.6409 10.1871C62.4963 11.0044 62.424 12.1194 62.424 13.5321C62.424 14.9785 62.4963 16.1087 62.6409 16.9226C62.7822 17.74 63.0126 18.3286 63.3321 18.6885C63.6517 19.0518 64.0889 19.2334 64.6439 19.2334C65.2157 19.2334 65.6614 19.0518 65.981 18.6885C66.3005 18.3286 66.5275 17.74 66.6621 16.9226C66.7966 16.1087 66.8639 14.9785 66.8639 13.5321C66.8639 12.1363 66.7933 11.0263 66.652 10.2022C66.5074 9.37811 66.2719 8.78444 65.9456 8.42117C65.616 8.06127 65.1821 7.88131 64.6439 7.88131Z" fill="white"/>
<path d="M78.09 22.3363H72.9941V4.7784H83.312L82.8074 8.31017H78.09V12.2456H82.2524V15.8026H78.09V22.3363ZM84.1192 4.7784H94.8154L94.3109 8.31017H89.2151V11.7158H93.7055V15.1467H89.2151V18.7541H94.6641V22.3363H84.1192V4.7784ZM104.598 22.3363L101.753 16.0548H101.067V22.3363H95.9759V4.7784H101.823C104.249 4.7784 106.045 5.2409 107.212 6.16588C108.382 7.09087 108.968 8.48676 108.968 10.3536C108.968 12.5063 108.058 14.0787 106.238 15.071L110.078 22.3363H104.598ZM101.067 8.25972V12.624H101.929C102.585 12.624 103.065 12.4423 103.367 12.0791C103.67 11.7192 103.821 11.144 103.821 10.3536C103.821 9.63038 103.648 9.10062 103.302 8.76426C102.959 8.4279 102.451 8.25972 101.778 8.25972H101.067ZM110.35 4.7784H115.446V22.3363H110.35V4.7784ZM130.885 22.3363H125.638L125.057 18.8803H121.526L120.945 22.3363H115.774L120.315 4.7784H126.369L130.885 22.3363ZM123.266 8.3354L122.106 15.3485H124.452L123.266 8.3354ZM137.166 4.27386C138.445 4.27386 139.571 4.47568 140.547 4.87931C141.522 5.28294 142.397 5.87157 143.17 6.6452L141.001 9.2688C139.941 8.34381 138.857 7.88131 137.747 7.88131C137.192 7.88131 136.78 8.0024 136.511 8.24458C136.241 8.49012 136.107 8.81471 136.107 9.21834C136.107 9.52107 136.183 9.76829 136.334 9.96001C136.485 10.1551 136.746 10.3485 137.116 10.5402C137.486 10.7353 138.066 10.9842 138.857 11.287C139.983 11.7242 140.883 12.1901 141.556 12.6845C142.229 13.1823 142.728 13.7844 143.054 14.4908C143.384 15.1971 143.549 16.0632 143.549 17.0891C143.549 18.2159 143.275 19.2166 142.726 20.0911C142.182 20.9657 141.396 21.6418 140.37 22.1194C139.344 22.6004 138.133 22.8409 136.738 22.8409C134.114 22.8409 131.928 21.9663 130.179 20.2173L132.626 17.518C133.87 18.628 135.131 19.183 136.41 19.183C137.049 19.183 137.515 19.0316 137.807 18.7289C138.103 18.4262 138.251 18.0309 138.251 17.5432C138.251 17.0219 138.083 16.5964 137.747 16.2667C137.41 15.9405 136.771 15.6008 135.829 15.2476C133.979 14.5412 132.688 13.7592 131.955 12.9015C131.225 12.0438 130.86 10.9674 130.86 9.67243C130.86 8.57926 131.132 7.624 131.677 6.80665C132.225 5.99266 132.979 5.36703 133.937 4.92976C134.896 4.4925 135.972 4.27386 137.166 4.27386Z" fill="white"/>
</g>
</g>
</g>
</g>
<g clip-path="url(#clip6_13_754)">
<g clip-path="url(#clip7_13_754)">
<path d="M180 28.4301V27.4326H177.506V25.9363H178.504V24.9387H176.509V23.8494C177.088 23.6429 177.506 23.0943 177.506 22.4449V19.951H174.513V22.4449C174.513 23.0943 174.932 23.6429 175.511 23.8494V24.9387H173.516V25.9363H174.513V27.4326H168.762L166.418 24.619L165.651 25.2579L168.295 28.4296H168.528V29.926H165.037V23.9412H171.022V21.9461H172.02V21.4473C172.02 20.0941 171.653 18.8272 171.022 17.7304V1.9951H168.029V1.49632C168.029 0.67135 167.358 0 166.533 0C165.708 0 165.037 0.67135 165.037 1.49632V1.9951H155.061V1.49632C155.061 0.67135 154.39 0 153.565 0C152.74 0 152.069 0.67135 152.069 1.49632V1.9951H149.076V23.9412H164.039V29.9265H161.545V30.924H180V29.9265H179.002V28.4301H180ZM175.511 20.9485H176.509V22.4449C176.509 22.7202 176.285 22.9436 176.01 22.9436C175.734 22.9436 175.511 22.7202 175.511 22.4449V20.9485ZM170.024 22.9436H165.037V21.9461H170.024V22.9436ZM152.069 20.9485V7.98039H168.029V14.835C167.711 14.666 167.376 14.5243 167.032 14.4021V12.9681H163.042V14.1163C162.699 14.1861 162.368 14.2869 162.044 14.4021V12.9681H158.054V15.9608H159.468C158.104 17.2222 157.212 18.9809 157.081 20.9485H152.069ZM171.003 20.9485H168.009C167.877 18.1723 166.688 16.1882 165.805 15.0884C168.617 15.6476 170.78 18.0307 171.003 20.9485ZM166.034 14.1163C165.55 14.0181 165.05 13.9657 164.538 13.9657C164.369 13.9657 164.205 13.9802 164.039 13.9911V13.9657H164.538H166.034V14.1163ZM161.047 14.835C160.97 14.8755 160.896 14.9198 160.821 14.9632H159.051V13.9657H161.047V14.835ZM163.271 15.0884C162.388 16.1882 161.199 18.1723 161.066 20.9485H158.073C158.296 18.0307 160.459 15.6476 163.271 15.0884ZM164.538 15.1593C165.236 15.89 166.847 17.901 167.011 20.9485H162.065C162.229 17.901 163.84 15.89 164.538 15.1593ZM166.034 1.49632C166.034 1.221 166.258 0.997549 166.533 0.997549C166.808 0.997549 167.032 1.221 167.032 1.49632V4.48897C167.032 4.76429 166.808 4.98774 166.533 4.98774C166.258 4.98774 166.034 4.76429 166.034 4.48897V1.49632ZM153.066 1.49632C153.066 1.221 153.29 0.997549 153.565 0.997549C153.84 0.997549 154.064 1.221 154.064 1.49632V4.48897C154.064 4.76429 153.84 4.98774 153.565 4.98774C153.29 4.98774 153.066 4.76429 153.066 4.48897V1.49632ZM150.073 22.9436V2.99265H152.069V4.48897C152.069 5.31394 152.74 5.98529 153.565 5.98529C154.39 5.98529 155.061 5.31394 155.061 4.48897V2.99265H165.037V4.48897C165.037 5.31394 165.708 5.98529 166.533 5.98529C167.358 5.98529 168.029 5.31394 168.029 4.48897V2.99265H170.024V16.3778C169.714 16.0421 169.375 15.7363 169.008 15.462H169.027V6.98284H151.071V21.9461H157.056H161.545H164.039V22.9436H150.073ZM175.511 25.9363H176.509V27.4326H175.511V25.9363ZM178.005 29.9265H169.526V28.4301H178.005V29.9265Z" fill="white"/>
<path d="M153.066 11.9706H157.056V8.97797H153.066V11.9706ZM154.064 9.97552H156.059V10.9731H154.064V9.97552Z" fill="white"/>
<path d="M162.044 8.97797H158.054V11.9706H162.044V8.97797ZM161.047 10.9731H159.052V9.97552H161.047V10.9731Z" fill="white"/>
<path d="M167.032 8.97797H163.042V11.9706H167.032V8.97797ZM166.034 10.9731H164.039V9.97552H166.034V10.9731Z" fill="white"/>
<path d="M153.066 15.9608H157.056V12.9681H153.066V15.9608ZM154.064 13.9657H156.059V14.9632H154.064V13.9657Z" fill="white"/>
<path d="M153.066 19.951H157.056V16.9583H153.066V19.951ZM154.064 17.9559H156.059V18.9534H154.064V17.9559Z" fill="white"/>
</g>
</g>
</g>
</g>
<defs>
<clipPath id="clip0_13_754">
<rect width="180" height="30.924" fill="white"/>
</clipPath>
<clipPath id="clip1_13_754">
<rect width="180" height="30.924" fill="white"/>
</clipPath>
<clipPath id="clip2_13_754">
<rect width="143.793" height="22.3763" fill="white" transform="translate(0 4.27386)"/>
</clipPath>
<clipPath id="clip3_13_754">
<rect width="143.793" height="22.3763" fill="white" transform="translate(0 4.27386)"/>
</clipPath>
<clipPath id="clip4_13_754">
<rect width="143.793" height="22.3763" fill="white" transform="translate(0 4.27386)"/>
</clipPath>
<clipPath id="clip5_13_754">
<rect width="143.793" height="22.3763" fill="white" transform="translate(0 4.27386)"/>
</clipPath>
<clipPath id="clip6_13_754">
<rect width="30.924" height="30.924" fill="white" transform="translate(149.076)"/>
</clipPath>
<clipPath id="clip7_13_754">
<rect width="30.924" height="30.924" fill="white" transform="translate(149.076)"/>
</clipPath>
</defs>
</svg>
